<svg xmlns="http://www.w3.org/2000/svg" version="1.1" xmlns:xlink="http://www.w3.org/1999/xlink" xmlns:svgjs="http://svgjs.com/svgjs" width="4000" height="3000" preserveAspectRatio="none" viewBox="0 0 4000 3000"><g mask="url(&quot;#SvgjsMask1109&quot;)" fill="none"><rect width="4000" height="3000" x="0" y="0" fill="rgba(152, 193, 219, 1)"></rect><path d="M0,1416.96C275.301,1384.604,573.339,1403.359,794.43,1236.157C1010.402,1072.826,1070.761,786.139,1168.198,533.498C1259.819,295.938,1312.095,58.876,1345.81,-193.498C1391.88,-538.359,1607.608,-934.131,1401.726,-1214.603C1199.582,-1489.983,764.235,-1406.698,425.104,-1447.771C139.137,-1482.405,-138.489,-1489.221,-421.476,-1435.415C-731.361,-1376.495,-1053.094,-1324.989,-1293.671,-1120.972C-1553.88,-900.306,-1827.017,-600.528,-1807.644,-259.9C-1788.109,83.584,-1357.562,242.257,-1198.78,547.464C-1052.43,828.773,-1180.933,1251.969,-924.243,1438.15C-669.633,1622.823,-312.382,1453.674,0,1416.96" fill="#61a0c8"></path><path d="M4000 4430.829C4354.224 4529.722 4711.247 4767.5560000000005 5058.968 4647.787 5414.4259999999995 4525.353 5648.4349999999995 4165.521 5786.025 3815.65 5920.007 3474.955 5874.509 3100.1 5809.278 2739.865 5746 2390.416 5646.472 2043.2150000000001 5416.128 1772.918 5184.713 1501.364 4872.467 1285.646 4520.454 1227.495 4184.842 1172.053 3866.052 1340.91 3549.136 1464.497 3258.177 1577.961 2987.451 1713.769 2750.831 1917.588 2481.259 2149.791 2119.08 2370.558 2086.001 2724.808 2052.844 3079.886 2362.16 3369.428 2589.611 3644.103 2771.949 3864.298 3013.548 4007.178 3263.2219999999998 4146.448 3497.878 4277.341 3741.202 4358.5779999999995 4000 4430.829" fill="#cfe2ee"></path></g><defs><mask id="SvgjsMask1109"><rect width="4000" height="3000" fill="#ffffff"></rect></mask></defs></svg>